<svg width="1000" height="1000" viewBox="0 0 1000 1000" fill="none" xmlns="http://www.w3.org/2000/svg">
<rect width="1000" height="1000" rx="50" fill="#D82323"/>
<path d="M580.604 490.672C621.268 463.268 648.672 416.416 648.672 362.492C647.788 278.512 577.068 210.444 492.204 210.444H332.2V234.312C332.2 245.804 341.04 255.528 353.416 255.528H493.088C553.2 255.528 604.472 305.032 603.588 366.028C602.704 424.372 554.084 472.108 495.74 472.108H353.416C341.04 472.108 332.2 481.832 332.2 493.324V516.308H502.812C565.576 516.308 619.5 565.812 621.268 629.46C623.036 694.876 569.996 748.8 505.464 748.8H353.416C341.04 748.8 332.2 758.524 332.2 770.016V793H501.928C588.56 793 661.932 725.816 665.468 639.184C668.12 575.536 632.76 518.96 580.604 490.672Z" fill="white"/>
</svg>
